# xmcd
#
# Track frame offsets: 
#        183
#        33630
#        63040
#        92418
#        134708
#        157065
#        180060
#        216540
#        233945
#        258318
#        294993
#
# Disc length: 4173 seconds
#
# Revision: 2
# Processed by: cddbd v1.5.2PL0 Copyright (c) Steve Scherf et al.
# Submitted via: ExactAudioCopy v0.99pb3
#
DISCID=9a104b0b
DTITLE=As One - Celestial Soul
DYEAR=1995
DGENRE=Electronic
TTITLE0=Celestial Soul
TTITLE1=Ikiru
TTITLE2=Interstellar
TTITLE3=Dhyana
TTITLE4=Laetoli
TTITLE5=Hybrid
TTITLE6=We No Longer Understand
TTITLE7=Renaissance
TTITLE8=Ariois
TTITLE9=Return To Taklimakan
TTITLE10=What Might Have Been
EXTD=
EXTT0=
EXTT1=
EXTT2=
EXTT3=
EXTT4=
EXTT5=
EXTT6=
EXTT7=
EXTT8=
EXTT9=
EXTT10=
PLAYORDER=
